<?xml version="1.0" encoding="utf-8"?>
<svg viewBox="-3143.423 -863.597 1365.333 1365.213" xmlns="http://www.w3.org/2000/svg" width="24" height="24">
  <path d="M -1778.09 -180.93 C -1778.09 -557.957 -2083.73 -863.597 -2460.756 -863.597 C -2837.783 -863.597 -3143.423 -557.957 -3143.423 -180.93 C -3143.423 159.808 -2893.782 442.23 -2567.423 493.443 L -2567.423 16.403 L -2740.756 16.403 L -2740.756 -180.93 L -2567.423 -180.93 L -2567.423 -331.33 C -2567.423 -502.424 -2465.506 -596.93 -2309.57 -596.93 C -2234.88 -596.93 -2156.756 -583.597 -2156.756 -583.597 L -2156.756 -415.597 L -2242.839 -415.597 C -2327.643 -415.597 -2354.089 -362.974 -2354.089 -308.987 L -2354.089 -180.93 L -2164.756 -180.93 L -2195.023 16.403 L -2354.09 16.403 L -2354.09 493.443 C -2027.731 442.23 -1778.09 159.808 -1778.09 -180.93" fill="#1877f2"/>
  <path d="M -2195.514 16.283 L -2165.247 -181.05 L -2354.581 -181.05 L -2354.581 -309.108 C -2354.581 -363.094 -2328.134 -415.717 -2243.33 -415.717 L -2157.247 -415.717 L -2157.247 -583.717 C -2157.247 -583.717 -2235.371 -597.05 -2310.061 -597.05 C -2465.997 -597.05 -2567.914 -502.544 -2567.914 -331.45 L -2567.914 -181.05 L -2741.247 -181.05 L -2741.247 16.283 L -2567.914 16.283 L -2567.914 493.323 C -2532.627 498.853 -2496.964 501.626 -2461.247 501.616 C -2424.959 501.616 -2389.337 498.776 -2354.581 493.323 L -2354.581 16.283 L -2195.514 16.283" fill="#fff"/>
</svg>